<?xml version="1.0" encoding="utf-8"?>
<!-- Generator: Adobe Illustrator 13.0.1, SVG Export Plug-In . SVG Version: 6.00 Build 14948)  -->
<!DOCTYPE svg PUBLIC "-//W3C//DTD SVG 1.1//EN" "http://www.w3.org/Graphics/SVG/1.1/DTD/svg11.dtd">
<svg version="1.1" id="Layer_1" xmlns="http://www.w3.org/2000/svg" xmlns:xlink="http://www.w3.org/1999/xlink" x="0px" y="0px"
	 width="298.264px" height="260.827px" viewBox="0 0 298.264 260.827" enable-background="new 0 0 298.264 260.827"
	 xml:space="preserve">
<g>
	<polygon fill-rule="evenodd" clip-rule="evenodd" fill="#000077" points="67.35,134.644 44.75,118.258 123.66,118.258 
		148.952,39.789 165.359,89.896 187.696,71.212 198.657,83.954 208.737,75.417 205.574,72.067 221.753,72.088 220.284,88.06 
		217.233,84.752 196.182,102.362 186.059,91.029 155.438,116.791 148.952,94.968 136.61,134.644 	"/>
	<path fill-rule="evenodd" clip-rule="evenodd" fill="#E30000" d="M95.24,213.033h36.306l-22.303,16.384H89.959L95.24,213.033z
		 M69.136,137.259H227.5l-22.227,16.327H91.655L69.136,137.259z M93.363,156.146h110.225l-14.797,10.87l1.795,5.514h-83.567
		l1.758-5.209L93.363,156.146z M106.601,175.146h84.397l5.217,16.328h-94.877L106.601,175.146z M100.921,194.09h95.708l5.216,16.327
		h-37.271l-15.736-11.409l-15.529,11.409H95.657L100.921,194.09z M166.359,213.033l22.598,16.384h18.534l-5.233-16.384H166.359z
		 M190.666,231.978h17.222l5.189,16.249L190.666,231.978z M89.56,231.978h18.232L83.976,249.3L89.56,231.978z"/>
	<path fill="#1F1A17" d="M165.845,15.57l-8.65-0.604l-1.762,3.429c-0.429,0.815-0.645,1.477-0.673,1.881
		c-0.023,0.337,0.124,0.651,0.408,0.942c0.317,0.292,0.979,0.508,2.052,0.65l-0.042,0.606l-7.002-0.489l0.042-0.606
		c0.954-0.103,1.541-0.264,1.862-0.513c0.576-0.501,1.291-1.533,2.075-3.068L163.278,0l0.572,0.04l6.45,19.054
		c0.533,1.559,1.04,2.542,1.512,3.048c0.475,0.473,1.165,0.758,2.069,0.889l-0.042,0.605l-8.786-0.613l0.043-0.606
		c0.877,0.028,1.495-0.098,1.814-0.313c0.355-0.246,0.511-0.539,0.537-0.91c0.032-0.471-0.115-1.259-0.48-2.333L165.845,15.57z
		 M165.458,14.325l-3.143-9.251l-4.532,8.715L165.458,14.325L165.458,14.325z"/>
	<path fill="#1F1A17" d="M146.518,16.148l0.545,0.063l-1.462,6.191l-17.268,1.206l-0.042-0.606l0.841-0.059
		c0.942-0.065,1.595-0.416,1.956-1.05c0.21-0.387,0.255-1.202,0.165-2.48L130.25,5.039c-0.097-1.38-0.292-2.246-0.621-2.595
		c-0.471-0.441-1.126-0.632-1.968-0.573l-0.842,0.059l-0.042-0.606l10.098-0.705l0.043,0.606c-1.179,0.082-2.013,0.242-2.468,0.511
		c-0.457,0.234-0.772,0.561-0.915,0.943c-0.145,0.348-0.187,1.197-0.096,2.509l0.979,14.003c0.063,0.909,0.209,1.542,0.4,1.866
		c0.151,0.227,0.365,0.38,0.641,0.463c0.277,0.082,1.123,0.091,2.57-0.01l1.616-0.113c1.717-0.12,2.919-0.339,3.575-0.622
		c0.688-0.318,1.298-0.801,1.825-1.48C145.54,18.618,146.041,17.568,146.518,16.148L146.518,16.148z"/>
	<path fill="#1F1A17" d="M193.582,18.019c1.412,0.728,2.39,1.513,2.947,2.431c0.781,1.257,0.956,2.561,0.572,3.995
		c-0.288,1.076-0.885,1.999-1.831,2.793c-0.946,0.794-2.051,1.267-3.379,1.4c-1.296,0.142-3.149-0.11-5.594-0.765l-10.169-2.723
		l0.157-0.586l0.814,0.218c0.88,0.235,1.61,0.117,2.158-0.365c0.357-0.289,0.664-1.045,0.987-2.25l3.735-13.95
		c0.358-1.336,0.455-2.219,0.225-2.665c-0.269-0.561-0.827-0.955-1.642-1.173l-0.814-0.218l0.156-0.586l9.322,2.496
		c1.727,0.463,3.094,0.968,4.066,1.508c1.501,0.786,2.524,1.793,3.109,2.999c0.586,1.205,0.713,2.426,0.372,3.697
		c-0.288,1.076-0.867,1.934-1.787,2.63C196.11,17.579,194.967,17.936,193.582,18.019L193.582,18.019z M185.466,14.938
		c0.374,0.17,0.813,0.357,1.293,0.521c0.513,0.172,1.066,0.321,1.653,0.478c1.564,0.419,2.781,0.57,3.65,0.454
		c0.87-0.116,1.596-0.481,2.203-1.052c0.574-0.58,1.003-1.269,1.222-2.083c0.34-1.271,0.106-2.486-0.7-3.646
		c-0.767-1.184-2.152-2.009-4.141-2.541c-1.075-0.288-2.047-0.443-2.955-0.442L185.466,14.938L185.466,14.938z M182.708,25.237
		c1.159,0.625,2.331,1.078,3.536,1.401c1.924,0.515,3.504,0.484,4.75-0.125c1.237-0.577,2.014-1.521,2.354-2.793
		c0.227-0.847,0.208-1.69-0.039-2.595c-0.247-0.904-0.83-1.724-1.728-2.418c-0.921-0.736-2.131-1.304-3.63-1.706
		c-0.685-0.184-1.247-0.299-1.703-0.421c-0.498-0.098-0.865-0.162-1.176-0.175L182.708,25.237L182.708,25.237z"/>
	<path fill="#1F1A17" d="M99.889,9.52l2.71,8.347l3.853-1.25c0.898-0.292,1.479-0.693,1.771-1.213
		c0.293-0.521,0.3-1.375,0.074-2.615l0.578-0.188l2.334,7.191l-0.577,0.188c-0.293-0.792-0.588-1.371-0.905-1.693
		c-0.35-0.313-0.7-0.518-1.148-0.585c-0.415-0.078-0.992,0.003-1.698,0.232l-3.853,1.25l2.167,6.678
		c0.344,1.06,0.638,1.745,0.881,2.057c0.18,0.226,0.478,0.377,0.893,0.455c0.533,0.111,1.057,0.083,1.538-0.073l0.771-0.25
		l0.188,0.578l-9.117,2.96l-0.188-0.578l0.77-0.25c0.867-0.281,1.426-0.747,1.645-1.385c0.152-0.404,0.01-1.281-0.396-2.533
		L97.715,13.1c-0.354-1.092-0.647-1.777-0.88-2.057c-0.223-0.247-0.488-0.409-0.861-0.466c-0.532-0.111-1.056-0.083-1.569,0.084
		l-0.771,0.25l-0.188-0.578l15.827-5.138l1.704,4.593l-0.546,0.177c-0.58-0.912-1.13-1.514-1.64-1.881
		c-0.531-0.324-1.063-0.542-1.672-0.557c-0.586-0.058-1.452,0.117-2.544,0.471L99.889,9.52z"/>
	<path fill="#1F1A17" d="M220.917,17.761c2.538,1.407,4.198,3.562,4.979,6.54c0.796,2.949,0.415,5.862-1.188,8.754
		c-1.651,2.98-3.953,4.906-6.922,5.807c-2.955,0.947-5.768,0.661-8.423-0.811c-2.686-1.488-4.435-3.692-5.201-6.625
		c-0.767-2.933-0.308-5.918,1.378-8.958c1.717-3.099,4.17-5.018,7.391-5.818C215.708,15.954,218.35,16.338,220.917,17.761
		L220.917,17.761z M220.079,18.647c-1.771-0.981-3.518-1.101-5.3-0.391c-2.228,0.887-4.186,2.888-5.902,5.986
		c-1.783,3.217-2.462,6.042-2.054,8.506c0.343,1.887,1.37,3.305,3.082,4.254c1.829,1.014,3.757,1.157,5.722,0.395
		c2.012-0.775,3.846-2.691,5.563-5.79c1.849-3.335,2.59-6.203,2.161-8.563C223.024,21.128,221.938,19.678,220.079,18.647
		L220.079,18.647z"/>
	<path fill="#1F1A17" d="M76.929,18.275c2.538-1.407,5.245-1.673,8.184-0.756c2.923,0.888,5.191,2.754,6.795,5.646
		c1.651,2.981,2.065,5.954,1.256,8.948c-0.763,3.008-2.495,5.241-5.151,6.713c-2.686,1.488-5.481,1.804-8.374,0.899
		c-2.893-0.904-5.182-2.876-6.866-5.916c-1.718-3.099-2.046-6.196-1.018-9.351C72.635,21.734,74.361,19.698,76.929,18.275
		L76.929,18.275z M77.235,19.455c-1.771,0.981-2.798,2.399-3.141,4.287c-0.428,2.359,0.231,5.08,1.949,8.178
		c1.782,3.217,3.819,5.29,6.125,6.249c1.782,0.71,3.529,0.59,5.24-0.358c1.83-1.014,2.972-2.573,3.367-4.644
		c0.408-2.117-0.244-4.687-1.962-7.785c-1.849-3.334-3.888-5.483-6.115-6.37C80.9,18.272,79.095,18.424,77.235,19.455L77.235,19.455
		z"/>
	<path fill="#1F1A17" d="M239.146,59.246l-4.575-3.841l0.936-12.873c-0.461-0.343-0.797-0.625-1.081-0.864
		c-0.104-0.087-0.207-0.174-0.336-0.282s-0.259-0.217-0.366-0.351l-4.188,4.988c-0.89,1.06-1.351,1.819-1.335,2.272
		c0.011,0.67,0.324,1.242,0.971,1.784l0.672,0.564l-0.391,0.465l-7.341-6.162l0.391-0.465l0.646,0.542
		c0.724,0.607,1.437,0.809,2.137,0.604c0.42-0.132,1.019-0.688,1.821-1.644l9.286-11.063c0.912-1.085,1.372-1.844,1.356-2.298
		c-0.032-0.644-0.371-1.237-1.018-1.779l-0.646-0.542l0.391-0.465l6.229,5.229c1.836,1.541,3.071,2.798,3.707,3.773
		c0.637,0.974,0.974,2.095,0.961,3.317c0.008,1.197-0.397,2.311-1.222,3.292c-0.89,1.06-1.985,1.683-3.334,1.872
		c-1.349,0.19-2.864-0.157-4.568-1.015l-0.607,7.862c-0.105,1.806-0.037,3.141,0.206,4.006c0.265,0.839,0.846,1.723,1.689,2.607
		L239.146,59.246z M234.375,40.259c0.154,0.13,0.284,0.239,0.413,0.347c0.104,0.087,0.207,0.174,0.284,0.239
		c1.629,1.367,3.173,2.047,4.586,2.043c1.413-0.003,2.586-0.561,3.498-1.646c0.911-1.085,1.291-2.221,1.183-3.457
		c-0.107-1.236-0.704-2.31-1.815-3.243c-0.491-0.413-1.203-0.877-2.16-1.417L234.375,40.259L234.375,40.259z"/>
	<path fill="#1F1A17" d="M273.401,65.615l-6.251,4.542l-0.357-0.491c1.082-1.037,1.819-2.031,2.231-2.957s0.549-1.942,0.403-3.004
		c-0.119-1.082-0.503-2.012-1.098-2.831c-0.655-0.901-1.483-1.467-2.513-1.678c-0.982-0.204-1.856-0.028-2.565,0.487
		c-0.546,0.397-0.926,0.965-1.085,1.665c-0.286,1.042-0.207,2.987,0.181,5.875c0.329,2.347,0.453,4.01,0.418,4.995
		c-0.008,0.965-0.244,1.846-0.661,2.649c-0.417,0.803-0.988,1.51-1.698,2.026c-1.364,0.992-2.936,1.299-4.719,0.968
		c-1.756-0.351-3.239-1.358-4.449-3.023c-0.377-0.519-0.707-1.03-0.962-1.554c-0.145-0.313-0.396-1.005-0.759-2.077
		c-0.361-1.072-0.595-1.737-0.753-1.955c-0.159-0.219-0.38-0.35-0.615-0.387c-0.216-0.01-0.568,0.079-1.018,0.322l-0.357-0.491
		l6.197-4.503l0.356,0.491c-1.151,1.171-1.869,2.192-2.246,3.051c-0.33,0.866-0.46,1.836-0.302,2.972
		c0.166,1.089,0.603,2.148,1.297,3.104c0.793,1.092,1.748,1.774,2.777,1.986c1.077,0.219,1.997,0.05,2.789-0.525
		c0.464-0.337,0.802-0.791,1.087-1.374c0.259-0.563,0.418-1.263,0.423-2.059c0.035-0.526-0.086-1.898-0.37-4.069
		c-0.237-2.163-0.349-3.751-0.307-4.783c0.043-1.032,0.26-1.94,0.629-2.751c0.391-0.784,0.953-1.443,1.69-1.979
		c1.311-0.952,2.76-1.254,4.429-0.966c1.662,0.335,3.039,1.254,4.149,2.783c0.715,0.983,1.23,2.151,1.513,3.573
		c0.139,0.65,0.287,1.084,0.445,1.303c0.159,0.218,0.38,0.35,0.636,0.415c0.235,0.037,0.588-0.052,1.076-0.24L273.401,65.615z"/>
	<path fill="#1F1A17" d="M48.491,40.314l-0.414-0.445l5.802-5.407l0.414,0.444l-0.617,0.575c-0.642,0.599-0.882,1.33-0.722,2.195
		c0.058,0.408,0.487,1.068,1.339,1.981l6.167,6.617c1.542,1.654,2.567,3.051,3.098,4.264c0.506,1.235,0.577,2.599,0.237,4.115
		c-0.342,1.564-1.326,3.082-2.98,4.623c-1.777,1.657-3.435,2.602-4.924,2.836c-1.513,0.257-2.938,0.016-4.299-0.653
		c-0.914-0.486-2.28-1.704-4.121-3.679l-5.959-6.395c-0.944-1.012-1.69-1.516-2.261-1.584c-0.571-0.068-1.178,0.221-1.795,0.797
		l-0.617,0.575l-0.415-0.444l7.086-6.604l0.414,0.444l-0.642,0.598c-0.667,0.621-0.977,1.279-0.834,1.977
		c0.031,0.479,0.508,1.188,1.359,2.102l6.649,7.135c0.575,0.617,1.34,1.289,2.198,2.012c0.883,0.7,1.703,1.134,2.437,1.327
		c0.71,0.168,1.5,0.125,2.368-0.131c0.867-0.208,1.696-0.705,2.536-1.487c1.086-1.013,1.794-2.134,2.196-3.385
		c0.427-1.274,0.442-2.396,0.097-3.411c-0.395-1.017-1.396-2.389-3.008-4.118l-6.166-6.617c-0.943-1.012-1.641-1.562-2.116-1.626
		c-0.643-0.046-1.273,0.218-1.891,0.793L48.491,40.314z"/>
	<path fill="#1F1A17" d="M286.68,89.82l-4.508,2.664l-0.301-0.566c0.757-0.517,1.273-0.983,1.536-1.352
		c0.378-0.583,0.573-1.222,0.589-1.842c-0.002-0.649-0.201-1.384-0.645-2.218l-1.473-2.771L266.8,91.749
		c-1.222,0.649-1.888,1.195-2.059,1.591c-0.212,0.609-0.119,1.286,0.276,2.031l0.364,0.686l-0.536,0.285l-4.435-8.344l0.536-0.285
		l0.364,0.686c0.443,0.834,1.028,1.288,1.726,1.376c0.408,0.05,1.171-0.24,2.273-0.826l15.079-8.015l-1.251-2.354
		c-0.491-0.924-0.929-1.532-1.254-1.856c-0.448-0.412-1.043-0.668-1.77-0.741c-0.697-0.088-1.523,0.083-2.449,0.499l-0.301-0.566
		l4.746-2.217L286.68,89.82z"/>
	<path fill="#1F1A17" d="M39.471,72.083l-4.722,7.274l2.146,3.203c0.506,0.771,0.98,1.28,1.319,1.5
		c0.283,0.184,0.63,0.208,1.021,0.1c0.41-0.136,0.919-0.61,1.563-1.479l0.51,0.331l-3.821,5.888l-0.51-0.331
		c0.373-0.884,0.516-1.476,0.455-1.877c-0.159-0.747-0.716-1.873-1.679-3.302L24.608,66.781L24.92,66.3l19.794,3.594
		c1.622,0.289,2.728,0.322,3.399,0.155c0.644-0.186,1.228-0.652,1.78-1.379L50.402,69l-4.795,7.387l-0.509-0.331
		c0.449-0.754,0.638-1.355,0.605-1.739c-0.043-0.43-0.225-0.709-0.535-0.911c-0.396-0.257-1.158-0.51-2.274-0.711L39.471,72.083z
		 M38.194,71.818l-9.614-1.735l5.426,8.188L38.194,71.818L38.194,71.818z"/>
	<path fill="#1F1A17" d="M278.645,112.774l-2.823-8.2l-3.845-0.282c-0.919-0.076-1.611-0.016-1.994,0.116
		c-0.319,0.11-0.552,0.369-0.708,0.744c-0.146,0.407-0.085,1.1,0.202,2.143l-0.574,0.198l-2.285-6.636l0.574-0.198
		c0.468,0.838,0.846,1.315,1.2,1.514c0.686,0.335,1.916,0.589,3.635,0.711l19.949,1.447l0.187,0.542l-15.021,13.381
		c-1.228,1.101-1.934,1.951-2.216,2.583c-0.25,0.622-0.242,1.368-0.01,2.252l-0.574,0.198l-2.867-8.328l0.574-0.198
		c0.317,0.818,0.675,1.338,0.997,1.548c0.365,0.231,0.696,0.26,1.047,0.139c0.447-0.154,1.115-0.598,1.961-1.353L278.645,112.774z
		 M279.64,111.932l7.288-6.507l-9.793-0.768L279.64,111.932L279.64,111.932z"/>
	<path fill="#1F1A17" d="M11.646,95.253l8.199,3.314l1.847-4.569c0.468-1.158,0.609-2.047,0.417-2.562
		c-0.255-0.722-0.974-1.376-2.137-1.919l0.228-0.563l7.229,2.922L27.2,92.438c-1.064-0.248-1.785-0.357-2.117-0.346
		c-0.42,0.049-0.828,0.248-1.212,0.566c-0.352,0.331-0.743,0.938-1.084,1.782l-1.848,4.569l6.854,2.77
		c0.907,0.367,1.483,0.563,1.709,0.545s0.433-0.08,0.646-0.249c0.201-0.137,0.429-0.519,0.656-1.082l1.416-3.505
		c0.469-1.158,0.729-2.072,0.787-2.667s-0.052-1.223-0.362-1.895c-0.36-0.91-1.047-1.916-2.064-3.091l0.253-0.626l4.475,3.884
		l-6.451,15.961l-0.563-0.228l0.291-0.72c0.202-0.5,0.254-0.989,0.212-1.516c-0.049-0.42-0.179-0.728-0.473-0.992
		c-0.275-0.22-0.938-0.561-1.939-0.966l-13.457-5.439c-1.314-0.531-2.179-0.735-2.593-0.611c-0.559,0.211-1,0.761-1.342,1.606
		l-0.29,0.72l-0.563-0.228l6.451-15.961l4.626,1.615l-0.24,0.594c-1.184-0.224-2.023-0.308-2.544-0.191
		c-0.508,0.086-0.973,0.335-1.395,0.748c-0.32,0.343-0.674,1.038-1.092,2.071L11.646,95.253z"/>
	<path fill="#1F1A17" d="M298.113,138.1l-5.146,0.962l-0.089-0.635c0.888-0.228,1.532-0.488,1.905-0.745
		c0.555-0.419,0.957-0.952,1.183-1.529c0.221-0.61,0.284-1.369,0.152-2.305l-0.437-3.108l-16.909,2.378
		c-1.37,0.193-2.182,0.478-2.479,0.792c-0.407,0.5-0.552,1.168-0.434,2.004l0.107,0.769l-0.602,0.084l-1.315-9.356l0.602-0.084
		l0.108,0.769c0.131,0.936,0.526,1.562,1.15,1.883c0.367,0.187,1.184,0.174,2.42,0l16.908-2.378l-0.371-2.64
		c-0.146-1.036-0.35-1.757-0.544-2.172c-0.28-0.54-0.752-0.985-1.41-1.301c-0.624-0.321-1.459-0.442-2.471-0.368l-0.09-0.635
		l5.218-0.461L298.113,138.1z"/>
	<path fill="#1F1A17" d="M28.147,111.107l-1.345,5.82l-11.896,5.01c-0.096,0.566-0.194,0.994-0.278,1.355
		c-0.03,0.132-0.061,0.263-0.099,0.428c-0.038,0.164-0.076,0.329-0.147,0.485l6.347,1.467c1.349,0.312,2.233,0.377,2.631,0.158
		c0.592-0.313,0.959-0.853,1.149-1.674l0.197-0.855l0.592,0.137l-2.158,9.339l-0.592-0.137l0.19-0.822
		c0.212-0.921,0.068-1.647-0.433-2.178c-0.309-0.314-1.074-0.595-2.291-0.876L5.94,125.512c-1.381-0.319-2.267-0.385-2.663-0.165
		c-0.56,0.321-0.935,0.893-1.124,1.715l-0.19,0.822l-0.592-0.137l1.832-7.925c0.539-2.334,1.099-4.006,1.679-5.016
		c0.579-1.009,1.424-1.818,2.52-2.362c1.063-0.551,2.239-0.695,3.488-0.406c1.349,0.312,2.4,1.005,3.182,2.121
		c0.781,1.116,1.161,2.624,1.17,4.531l7.281-3.028c1.657-0.726,2.816-1.393,3.477-2.002c0.628-0.617,1.151-1.535,1.557-2.688
		L28.147,111.107z M13.396,123.979c0.046-0.197,0.084-0.361,0.122-0.526c0.03-0.131,0.061-0.263,0.083-0.362
		c0.479-2.071,0.384-3.756-0.261-5.014c-0.646-1.257-1.675-2.049-3.056-2.369s-2.564-0.143-3.617,0.515
		c-1.053,0.657-1.738,1.676-2.065,3.09c-0.145,0.625-0.235,1.47-0.281,2.567L13.396,123.979L13.396,123.979z"/>
	<path fill="#1F1A17" d="M276.368,154.233l-0.607-0.011l0.169-9.581l0.607,0.011l-0.014,0.776c-0.017,0.944,0.241,1.624,0.773,2.038
		c0.333,0.275,1.208,0.426,2.523,0.449l14.439,0.255c1.147,0.021,1.891-0.034,2.23-0.197c0.306-0.096,0.546-0.327,0.721-0.662
		c0.278-0.468,0.422-0.971,0.432-1.511l0.014-0.776l0.607,0.011l-0.169,9.582l-0.607-0.011l0.015-0.81
		c0.016-0.911-0.242-1.591-0.774-2.005c-0.333-0.276-1.174-0.46-2.522-0.483l-14.44-0.255c-1.113-0.02-1.856,0.068-2.23,0.197
		c-0.271,0.096-0.512,0.328-0.721,0.662c-0.278,0.468-0.422,0.971-0.432,1.511L276.368,154.233z"/>
	<path fill="#1F1A17" d="M296.438,174.784l-7.67-0.943l0.074-0.603c1.498-0.02,2.716-0.244,3.648-0.64
		c0.933-0.395,1.727-1.045,2.345-1.921c0.65-0.872,1.005-1.814,1.128-2.819c0.137-1.105-0.083-2.084-0.691-2.941
		c-0.58-0.819-1.338-1.286-2.209-1.394c-0.67-0.082-1.335,0.074-1.929,0.477c-0.92,0.567-2.189,2.043-3.876,4.42
		c-1.36,1.94-2.404,3.24-3.102,3.936c-0.664,0.701-1.438,1.184-2.291,1.486c-0.854,0.304-1.753,0.431-2.624,0.323
		c-1.674-0.206-3.032-1.053-4.11-2.512c-1.045-1.454-1.442-3.203-1.191-5.246c0.079-0.637,0.187-1.235,0.357-1.792
		c0.107-0.327,0.396-1.006,0.862-2.036s0.75-1.676,0.782-1.943c0.033-0.269-0.038-0.515-0.186-0.703
		c-0.15-0.154-0.469-0.329-0.963-0.458l0.074-0.604l7.603,0.936l-0.074,0.603c-1.641,0.07-2.862,0.328-3.724,0.698
		c-0.832,0.407-1.589,1.028-2.248,1.968c-0.622,0.909-1.025,1.981-1.17,3.153c-0.165,1.34,0.067,2.49,0.676,3.348
		c0.639,0.895,1.426,1.399,2.397,1.519c0.569,0.07,1.126-0.031,1.732-0.263c0.573-0.235,1.167-0.639,1.714-1.217
		c0.385-0.361,1.231-1.447,2.505-3.229c1.303-1.743,2.305-2.98,3.04-3.706s1.513-1.241,2.337-1.582
		c0.819-0.308,1.682-0.405,2.586-0.294c1.607,0.197,2.873,0.965,3.897,2.315c0.986,1.379,1.365,2.99,1.135,4.865
		c-0.148,1.206-0.568,2.412-1.332,3.645c-0.342,0.569-0.529,0.988-0.563,1.257c-0.033,0.268,0.039,0.515,0.182,0.736
		c0.146,0.188,0.465,0.363,0.951,0.559L296.438,174.784z"/>
	<path fill="#1F1A17" d="M1.161,142.48l-0.607-0.021l0.276-7.925l0.607,0.021l-0.029,0.843c-0.031,0.877,0.316,1.564,1.042,2.063
		c0.329,0.247,1.1,0.409,2.348,0.453l9.037,0.314c2.26,0.079,3.973,0.341,5.205,0.823c1.231,0.516,2.246,1.429,3.078,2.74
		c0.864,1.347,1.242,3.116,1.163,5.375c-0.085,2.429-0.588,4.268-1.475,5.486c-0.887,1.252-2.064,2.089-3.499,2.579
		c-0.99,0.303-2.817,0.408-5.515,0.314l-8.734-0.305c-1.382-0.048-2.266,0.124-2.718,0.479c-0.451,0.355-0.676,0.989-0.705,1.832
		l-0.029,0.843L0,158.376l0.337-9.679l0.606,0.021l-0.03,0.877c-0.031,0.91,0.215,1.594,0.809,1.986
		c0.36,0.316,1.199,0.48,2.446,0.524l9.746,0.339c0.843,0.029,1.858-0.036,2.976-0.133c1.118-0.129,2.006-0.402,2.661-0.785
		c0.621-0.383,1.147-0.973,1.581-1.768c0.465-0.761,0.7-1.697,0.74-2.844c0.052-1.484-0.241-2.777-0.842-3.946
		c-0.6-1.202-1.382-2.006-2.345-2.479c-0.997-0.44-2.677-0.701-5.037-0.783l-9.037-0.315c-1.383-0.048-2.265,0.057-2.646,0.347
		c-0.487,0.422-0.746,1.055-0.775,1.897L1.161,142.48z"/>
	<path fill="#1F1A17" d="M288.326,202.359l-5.049-1.391l0.198-0.609c0.897,0.185,1.592,0.232,2.04,0.165
		c0.682-0.133,1.277-0.437,1.733-0.856c0.466-0.452,0.855-1.106,1.147-2.005l0.969-2.986l-16.244-5.273
		c-1.316-0.427-2.172-0.527-2.576-0.374c-0.585,0.271-1.008,0.808-1.268,1.61l-0.24,0.738l-0.578-0.188l2.919-8.989l0.577,0.188
		l-0.239,0.739c-0.292,0.898-0.211,1.635,0.209,2.196c0.248,0.329,0.987,0.676,2.176,1.062l16.245,5.273l0.823-2.536
		c0.322-0.995,0.456-1.733,0.463-2.192c-0.016-0.608-0.244-1.215-0.697-1.787c-0.421-0.563-1.118-1.038-2.061-1.414l0.198-0.61
		l4.893,1.872L288.326,202.359z"/>
	<path fill="#1F1A17" d="M12.921,169.911c0.063-1.588,0.361-2.806,0.958-3.699c0.81-1.239,1.918-1.948,3.381-2.206
		c1.097-0.193,2.186-0.043,3.305,0.479c1.12,0.522,2.016,1.323,2.698,2.472c0.676,1.114,1.23,2.9,1.67,5.394l1.828,10.368
		l-0.598,0.105l-0.146-0.83c-0.158-0.897-0.575-1.51-1.243-1.803c-0.413-0.201-1.228-0.16-2.457,0.057l-14.225,2.508
		c-1.362,0.24-2.203,0.525-2.51,0.922c-0.396,0.48-0.517,1.153-0.37,1.984l0.146,0.83l-0.599,0.105l-1.676-9.504
		c-0.311-1.762-0.429-3.214-0.351-4.324c0.078-1.693,0.56-3.046,1.404-4.086s1.898-1.671,3.194-1.899
		c1.097-0.193,2.119-0.031,3.14,0.509C11.453,167.805,12.26,168.69,12.921,169.911L12.921,169.911z M13.557,178.571
		c-0.004-0.411-0.02-0.888-0.074-1.393c-0.061-0.537-0.16-1.103-0.266-1.7c-0.281-1.596-0.658-2.763-1.131-3.502
		c-0.474-0.738-1.11-1.243-1.885-1.552c-0.769-0.276-1.573-0.374-2.404-0.228c-1.296,0.229-2.299,0.953-3.009,2.176
		c-0.749,1.193-0.911,2.799-0.554,4.826c0.193,1.097,0.463,2.043,0.848,2.866L13.557,178.571L13.557,178.571z M24.059,176.72
		c0.076-1.316-0.008-2.569-0.225-3.799c-0.346-1.961-1.041-3.38-2.12-4.252c-1.046-0.878-2.23-1.184-3.526-0.955
		c-0.864,0.152-1.621,0.526-2.337,1.132c-0.715,0.605-1.212,1.481-1.462,2.588c-0.278,1.146-0.282,2.482-0.013,4.012
		c0.123,0.697,0.256,1.257,0.338,1.722c0.121,0.493,0.219,0.853,0.338,1.141L24.059,176.72L24.059,176.72z"/>
	<path fill="#1F1A17" d="M262.305,207.904l-0.555-0.247l3.9-8.754l0.555,0.248l-0.316,0.709c-0.384,0.862-0.412,1.589-0.084,2.179
		c0.198,0.384,0.945,0.864,2.147,1.399l13.191,5.878c1.048,0.467,1.754,0.707,2.131,0.69c0.318,0.031,0.631-0.088,0.922-0.328
		c0.438-0.321,0.769-0.729,0.988-1.222l0.315-0.709l0.555,0.247l-3.9,8.754l-0.555-0.248l0.33-0.739
		c0.37-0.832,0.398-1.559,0.07-2.148c-0.198-0.384-0.9-0.881-2.133-1.431l-13.192-5.877c-1.018-0.454-1.736-0.663-2.131-0.691
		c-0.287-0.017-0.6,0.103-0.922,0.328c-0.438,0.322-0.768,0.729-0.987,1.223L262.305,207.904z"/>
	<path fill="#1F1A17" d="M29.158,197.706c-0.181-0.473-0.181-0.942,0.033-1.423c0.225-0.448,0.543-0.751,1.016-0.932
		c0.473-0.182,0.942-0.182,1.422,0.032c0.437,0.193,0.783,0.53,0.964,1.003c0.182,0.473,0.15,0.955-0.044,1.392
		c-0.214,0.479-0.563,0.794-1.035,0.976s-0.943,0.182-1.391-0.044C29.655,198.527,29.34,198.179,29.158,197.706L29.158,197.706z"/>
	<path fill="#1F1A17" d="M268.917,238.947l-6.709-3.594l0.269-0.43c2.304,0.644,4.196,0.672,5.717,0.149
		c1.51-0.569,2.744-1.589,3.674-3.077c0.787-1.26,1.188-2.602,1.184-3.997c-0.015-1.441-0.516-2.869-1.561-4.318
		c-1.045-1.448-2.612-2.825-4.674-4.113c-1.717-1.073-3.366-1.745-4.966-1.988c-1.617-0.214-3.063-0.003-4.447,0.685
		c-1.355,0.705-2.486,1.75-3.362,3.152c-0.769,1.23-1.19,2.479-1.237,3.764c-0.075,1.267,0.312,2.941,1.188,5.041l-0.554,0.251
		c-1.099-2-1.633-3.886-1.618-5.628c-0.015-1.76,0.561-3.51,1.651-5.256c1.949-3.12,4.644-4.82,8.035-5.089
		c2.551-0.197,4.994,0.414,7.342,1.88c1.889,1.181,3.367,2.701,4.405,4.543c1.056,1.814,1.553,3.757,1.511,5.8
		c-0.071,2.024-0.661,3.925-1.752,5.671c-0.858,1.374-2.014,2.522-3.542,3.438c-0.433,0.247-0.726,0.462-0.833,0.634
		c-0.161,0.258-0.172,0.529-0.125,0.837c0.086,0.372,0.351,0.776,0.708,1.159L268.917,238.947z"/>
	<path fill="#1F1A17" d="M15.811,216.248l6.758-3.746l0.295,0.531c-1.2,0.896-2.054,1.794-2.575,2.662
		c-0.521,0.867-0.782,1.86-0.767,2.932c-0.014,1.089,0.254,2.059,0.744,2.944c0.54,0.974,1.293,1.637,2.289,1.972
		c0.95,0.322,1.839,0.254,2.605-0.171c0.591-0.327,1.037-0.845,1.28-1.52c0.41-0.999,0.569-2.939,0.536-5.853
		c-0.04-2.37,0.04-4.034,0.195-5.008c0.125-0.957,0.467-1.802,0.979-2.549c0.512-0.746,1.165-1.378,1.932-1.804
		c1.476-0.817,3.072-0.931,4.802-0.385c1.7,0.562,3.05,1.743,4.048,3.543c0.311,0.561,0.575,1.108,0.765,1.659
		c0.104,0.327,0.271,1.045,0.499,2.153c0.229,1.107,0.379,1.796,0.51,2.032s0.334,0.394,0.563,0.459
		c0.213,0.037,0.573-0.009,1.049-0.195l0.294,0.531l-6.698,3.713l-0.295-0.531c1.286-1.021,2.122-1.947,2.602-2.753
		c0.434-0.819,0.68-1.766,0.661-2.913c-0.031-1.102-0.335-2.206-0.907-3.238c-0.654-1.181-1.519-1.975-2.515-2.31
		c-1.042-0.349-1.977-0.294-2.832,0.181c-0.502,0.277-0.892,0.688-1.246,1.23c-0.325,0.527-0.568,1.202-0.671,1.992
		c-0.099,0.518-0.146,1.894-0.128,4.083c-0.029,2.176-0.112,3.766-0.28,4.784c-0.168,1.02-0.493,1.895-0.96,2.654
		c-0.482,0.73-1.122,1.316-1.919,1.758c-1.416,0.785-2.891,0.908-4.513,0.418c-1.608-0.535-2.862-1.615-3.778-3.268
		c-0.589-1.063-0.958-2.285-1.065-3.73c-0.058-0.662-0.152-1.111-0.283-1.347c-0.131-0.236-0.334-0.394-0.58-0.489
		c-0.229-0.065-0.59-0.021-1.098,0.107L15.811,216.248z"/>
	<path fill="#1F1A17" d="M44.38,224.865c-0.291-0.414-0.404-0.871-0.313-1.388c0.11-0.489,0.346-0.86,0.761-1.15
		c0.414-0.291,0.871-0.404,1.388-0.313c0.471,0.083,0.888,0.326,1.179,0.741c0.29,0.415,0.376,0.891,0.293,1.36
		c-0.091,0.518-0.354,0.907-0.769,1.197c-0.414,0.291-0.871,0.404-1.36,0.294C45.06,225.543,44.67,225.28,44.38,224.865
		L44.38,224.865z"/>
	<path fill="#1F1A17" d="M252.801,256.43l-5.653-5.27l0.414-0.444c1.225,0.864,2.342,1.397,3.329,1.626
		c0.986,0.228,2.012,0.168,3.026-0.179c1.039-0.323,1.879-0.878,2.569-1.618c0.76-0.815,1.156-1.736,1.168-2.787
		c0.012-1.004-0.327-1.827-0.97-2.426c-0.493-0.46-1.124-0.725-1.841-0.747c-1.077-0.081-2.972,0.367-5.732,1.3
		c-2.242,0.771-3.85,1.21-4.824,1.364c-0.948,0.177-1.858,0.113-2.727-0.144c-0.869-0.256-1.672-0.681-2.313-1.279
		c-1.234-1.15-1.836-2.634-1.853-4.448c0.009-1.791,0.715-3.439,2.119-4.945c0.437-0.47,0.876-0.891,1.341-1.241
		c0.279-0.201,0.911-0.581,1.894-1.142c0.983-0.56,1.592-0.915,1.776-1.113c0.184-0.197,0.271-0.438,0.263-0.678
		c-0.031-0.214-0.187-0.542-0.511-0.937l0.414-0.444l5.604,5.223l-0.414,0.444c-1.369-0.906-2.51-1.416-3.424-1.622
		c-0.913-0.159-1.891-0.101-2.976,0.271c-1.038,0.371-1.995,1.002-2.8,1.865c-0.921,0.988-1.408,2.056-1.419,3.106
		c-0.009,1.1,0.332,1.971,1.048,2.638c0.42,0.392,0.93,0.636,1.557,0.805c0.602,0.146,1.319,0.169,2.102,0.022
		c0.523-0.066,1.848-0.447,3.924-1.142c2.079-0.646,3.616-1.059,4.638-1.214s1.954-0.116,2.821,0.092
		c0.844,0.233,1.6,0.66,2.266,1.281c1.186,1.104,1.759,2.47,1.794,4.164c-0.012,1.695-0.65,3.223-1.938,4.604
		c-0.829,0.89-1.878,1.618-3.22,2.167c-0.611,0.261-1.01,0.489-1.193,0.688c-0.185,0.197-0.271,0.438-0.286,0.702
		c0.009,0.238,0.164,0.567,0.441,1.011L252.801,256.43z"/>
	<path fill="#1F1A17" d="M40.082,248.76l-0.444,0.415l-5.407-5.802l0.444-0.415l0.575,0.617c0.599,0.643,1.33,0.883,2.195,0.723
		c0.408-0.058,1.067-0.488,1.981-1.339l6.616-6.167c1.654-1.542,3.052-2.567,4.265-3.098c1.235-0.506,2.599-0.577,4.115-0.237
		c1.563,0.342,3.081,1.326,4.623,2.98c1.656,1.777,2.602,3.435,2.836,4.923c0.257,1.514,0.016,2.938-0.653,4.3
		c-0.485,0.914-1.704,2.28-3.679,4.121l-6.395,5.959c-1.013,0.943-1.517,1.69-1.584,2.261c-0.068,0.571,0.221,1.178,0.797,1.795
		l0.575,0.617l-0.444,0.414l-6.604-7.085l0.444-0.414l0.599,0.642c0.621,0.666,1.278,0.977,1.977,0.834
		c0.479-0.031,1.188-0.508,2.102-1.359l7.135-6.649c0.617-0.576,1.289-1.34,2.012-2.198c0.699-0.883,1.134-1.703,1.327-2.437
		c0.168-0.711,0.124-1.5-0.132-2.369c-0.208-0.866-0.704-1.696-1.486-2.535c-1.013-1.087-2.134-1.795-3.386-2.197
		c-1.274-0.427-2.396-0.442-3.411-0.096c-1.017,0.395-2.389,1.396-4.117,3.007l-6.617,6.167c-1.012,0.943-1.562,1.641-1.626,2.116
		c-0.047,0.643,0.218,1.272,0.793,1.89L40.082,248.76z"/>
</g>
</svg>
